<svg width="44" height="39" viewBox="0 0 44 39" fill="none" xmlns="http://www.w3.org/2000/svg">
<g id="Group 1000004956">
<path id="Vector" fill-rule="evenodd" clip-rule="evenodd" d="M28.1113 11.3932C26.3023 10.3218 24.1756 9.75 22 9.75V0C26.3512 0 30.6046 1.14366 34.2225 3.28634C37.8405 5.42902 40.6602 8.47451 42.3254 12.0376C43.9904 15.6008 44.4262 19.5216 43.5773 23.3042C42.7284 27.0869 40.6331 30.5615 37.5563 33.2885C34.4796 36.0157 30.5595 37.8729 26.292 38.6253C22.0244 39.3777 17.6009 38.9915 13.5809 37.5156C9.56099 36.0397 6.12505 33.5404 3.70767 30.3336C1.29028 27.1268 0 23.3567 0 19.5H11C11 21.4283 11.6452 23.3134 12.8538 24.9168C14.0625 26.5202 15.7805 27.7698 17.7905 28.5078C19.8004 29.2458 22.0122 29.4388 24.146 29.0626C26.2798 28.6864 28.2398 27.7578 29.7782 26.3943C31.3166 25.0307 32.3642 23.2934 32.7886 21.4021C33.2131 19.5108 32.9953 17.5504 32.1627 15.7689C31.3301 13.9872 29.9202 12.4645 28.1113 11.3932Z" fill="white"/>
<path id="Vector_2" fill-rule="evenodd" clip-rule="evenodd" d="M11 4.22297e-06C11 1.28039 10.7155 2.54824 10.1627 3.73116C9.60987 4.91409 8.79962 5.98892 7.77817 6.89429C6.75673 7.79967 5.54411 8.51784 4.20952 9.00783C2.87493 9.49781 1.44454 9.75 4.80821e-07 9.75L0 19.5C2.88908 19.5 5.74987 18.9956 8.41904 18.0157C11.0882 17.0357 13.5135 15.5993 15.5563 13.7885C17.5992 11.9779 19.2197 9.82819 20.3254 7.46233C21.431 5.09647 22 2.56077 22 0L11 4.22297e-06Z" fill="white"/>
</g>
</svg>
