<svg width="27" height="27" viewBox="0 0 27 27" fill="none" xmlns="http://www.w3.org/2000/svg">
<path id="Vector" fill-rule="evenodd" clip-rule="evenodd" d="M19.2279 16.019C18.8988 15.8576 17.2857 15.0797 16.9854 14.9714C16.6851 14.8641 16.4665 14.8111 16.2468 15.1339C16.0282 15.4546 15.4 16.1804 15.2089 16.3949C15.0168 16.6105 14.8258 16.6365 14.4979 16.4761C14.17 16.3136 13.1123 15.9746 11.8591 14.8782C10.8842 14.0246 10.225 12.9705 10.034 12.6477C9.84303 12.3259 10.0131 12.1515 10.1776 11.9912C10.3255 11.8471 10.5055 11.6152 10.67 11.4278C10.8345 11.2393 10.8886 11.105 10.9979 10.8894C11.1083 10.6749 11.0531 10.4875 10.9703 10.3261C10.8886 10.1647 10.2328 8.57975 9.95896 7.93517C9.69287 7.30792 9.42237 7.3935 9.22142 7.38267C9.02931 7.374 8.8107 7.37183 8.59209 7.37183C8.37347 7.37183 8.01795 7.452 7.71764 7.77483C7.41622 8.09658 6.56938 8.8755 6.56938 10.4604C6.56938 12.0442 7.74414 13.575 7.90865 13.7906C8.07316 14.0051 10.2217 17.2572 13.513 18.6515C14.297 18.983 14.9075 19.1812 15.3834 19.3286C16.1695 19.5745 16.885 19.5398 17.4503 19.4564C18.0796 19.3643 19.3913 18.6775 19.6651 17.9256C19.9378 17.1738 19.9378 16.5292 19.8561 16.3949C19.7744 16.2606 19.5558 16.1804 19.2268 16.019H19.2279ZM13.2414 24.0389H13.237C11.2821 24.0392 9.36316 23.5236 7.68121 22.546L7.28373 22.3142L3.1522 23.378L4.25519 19.4261L3.99573 19.0209C2.90282 17.3139 2.32445 15.3384 2.32744 13.3226C2.32965 7.41842 7.22521 2.61493 13.2459 2.61493C16.1607 2.61493 18.901 3.73076 20.9613 5.75442C21.9775 6.74738 22.7829 7.9282 23.331 9.22855C23.8791 10.5289 24.1589 11.923 24.1543 13.3302C24.1521 19.2343 19.2566 24.0389 13.2414 24.0389ZM22.5291 4.21718C21.3126 3.01568 19.8652 2.06301 18.2707 1.41439C16.6762 0.765756 14.9664 0.434061 13.2403 0.438521C6.00408 0.438521 0.112618 6.21809 0.11041 13.3215C0.109306 15.5921 0.713247 17.8086 1.86261 19.7619L0 26.4384L6.96023 24.6466C8.88564 25.6759 11.0433 26.2152 13.2359 26.2153H13.2414C20.4777 26.2153 26.3692 20.4357 26.3714 13.3312C26.3767 11.6383 26.0399 9.9611 25.3804 8.3967C24.7208 6.8323 23.7517 5.41173 22.5291 4.21718Z" fill="black"/>
</svg>
